<?xml version="1.0" encoding="iso-8859-1"?>
<!-- Generator: Adobe Illustrator 16.2.1, SVG Export Plug-In . SVG Version: 6.00 Build 0)  -->
<!DOCTYPE svg PUBLIC "-//W3C//DTD SVG 1.1//EN" "http://www.w3.org/Graphics/SVG/1.1/DTD/svg11.dtd">
<svg version="1.1" id="Layer_1" xmlns="http://www.w3.org/2000/svg" xmlns:xlink="http://www.w3.org/1999/xlink" x="0px" y="0px"
	 width="22.757px" height="22.278px" viewBox="0 0 22.757 22.278" style="enable-background:new 0 0 22.757 22.278;"
	 xml:space="preserve">
<g id="_x3C_Group_x3E__15_">
	<path style="fill:#FFFFFF;" d="M19.629,8.585L19.055,7.22c0,0,1.336-3.016,1.219-3.131l-1.77-1.728
		c-0.123-0.119-3.14,1.258-3.14,1.258l-1.392-0.562c0,0-1.229-3.057-1.397-3.057h-2.498C9.904,0,8.766,3.063,8.766,3.063
		L7.377,3.627c0,0-3.081-1.309-3.198-1.192L2.412,4.165C2.29,4.284,3.697,7.238,3.697,7.238L3.122,8.601
		c0,0-3.122,1.202-3.122,1.365v2.447c0,0.172,3.129,1.286,3.129,1.286l0.575,1.362c0,0-1.336,3.014-1.219,3.129l1.768,1.73
		c0.121,0.119,3.138-1.26,3.138-1.26l1.393,0.564c0,0,1.229,3.055,1.399,3.055h2.497c0.173,0,1.312-3.062,1.312-3.062l1.394-0.564
		c0,0,3.074,1.309,3.193,1.193l1.77-1.729c0.123-0.121-1.287-3.075-1.287-3.075l0.574-1.364c0,0,3.123-1.204,3.123-1.369V9.865
		C22.758,9.697,19.629,8.585,19.629,8.585z M15.026,11.14c0,1.968-1.636,3.569-3.647,3.569c-2.01,0-3.648-1.602-3.648-3.569
		c0-1.968,1.638-3.568,3.648-3.568C13.391,7.572,15.026,9.171,15.026,11.14z"/>
</g>
</svg>
